<svg xmlns="http://www.w3.org/2000/svg" viewBox="0 0 97.09 85.45"><defs><style>.cls-1{fill:#333;}</style></defs><g id="Capa_2" data-name="Capa 2"><g id="Capa_1-2" data-name="Capa 1"><path class="cls-1" d="M0,62.71v-1.2A15.09,15.09,0,0,1,1.24,60a1.07,1.07,0,0,0,.4-.39l1.14-1.13.58-.56,1.15-1.18L5,56.29l1-1,.55-.59a8.55,8.55,0,0,0,1.24-1.24,1.21,1.21,0,0,0,.39-.39,10.54,10.54,0,0,0,1.25-1.25l.47-.44L11,50.22a1.21,1.21,0,0,0,.39-.39l1.14-1.14.59-.55L14.29,47l.49-.44,1-1,.55-.59a8.14,8.14,0,0,0,1.24-1.25,1,1,0,0,0,.39-.38,2.5,2.5,0,0,1,1.62-.62,3,3,0,0,1,1.62.93l.19.19,1.44,1.44.19.2,1.44,1.43.19.2,1.44,1.43.19.2,1.44,1.43.19.2c.35.35.7.7,1,1.06s.32.16.44-.06a7.42,7.42,0,0,0,1-1,2.61,2.61,0,0,0,.62-.62,7.42,7.42,0,0,0,1-1,2.44,2.44,0,0,0,.62-.62,7.42,7.42,0,0,0,1-1,2.61,2.61,0,0,0,.62-.62,8.85,8.85,0,0,0,1-1,3,3,0,0,0,.62-.62,9.63,9.63,0,0,0,1-1,3,3,0,0,0,.62-.62,9.63,9.63,0,0,0,1-1,3,3,0,0,0,.62-.62,8.85,8.85,0,0,0,1-1,2.61,2.61,0,0,0,.62-.62,7.42,7.42,0,0,0,1-1,2.44,2.44,0,0,0,.62-.62,7.42,7.42,0,0,0,1-1,2.44,2.44,0,0,0,.62-.62,7.42,7.42,0,0,0,1-1,2.61,2.61,0,0,0,.62-.62l.81-.77c.12-.11.17-.22.06-.36a3.72,3.72,0,0,0,0-1.41,5.23,5.23,0,0,0,0-1.85,3.72,3.72,0,0,0,0-1.41,5.23,5.23,0,0,0,0-1.85,3.72,3.72,0,0,0,0-1.41,5.28,5.28,0,0,0,0-1.86,3.66,3.66,0,0,0,0-1.4,5.28,5.28,0,0,0,0-1.86,3.66,3.66,0,0,0,0-1.4,5.28,5.28,0,0,0,0-1.86,5.47,5.47,0,0,0,0-1.4,5.28,5.28,0,0,0,0-1.86,3.66,3.66,0,0,0,0-1.4,5.28,5.28,0,0,0,0-1.86,3.72,3.72,0,0,0,0-1.41,5.23,5.23,0,0,0,0-1.85,3.72,3.72,0,0,0,0-1.41,5.23,5.23,0,0,0,0-1.85,3.72,3.72,0,0,0,0-1.41,14.38,14.38,0,0,0,.09-1.74C47.4-.06,48.3-.34,49.8.39c.2.1.39.27.64.24a7.62,7.62,0,0,0,1.71.8,9.91,9.91,0,0,0,1.65.77L55.42,3l.55.22a3.68,3.68,0,0,0,1.1.51,8.25,8.25,0,0,0,1.63.74,1.78,1.78,0,0,0,.66.33,5,5,0,0,0,1,.44A14.18,14.18,0,0,0,62,6L65.1,7.39A12,12,0,0,0,66.35,8a2.36,2.36,0,0,1,1.58,1.55,2.62,2.62,0,0,1-.36,1.62l-.86.64c-1.07.34-2.09.8-3.12,1.23a9.89,9.89,0,0,0-1.63.65L58.68,15l-1.62.64-1,.38-.66.28a10.56,10.56,0,0,0-1.64.65l-2.5,1c-1,.37-1,.42-.79,1.5a7.78,7.78,0,0,0,0,1.6,4.63,4.63,0,0,0,0,1.66,7.78,7.78,0,0,0,0,1.6,4.63,4.63,0,0,0,0,1.66,7.78,7.78,0,0,0,0,1.6,4.63,4.63,0,0,0,0,1.66,7.88,7.88,0,0,0,0,1.61,4.58,4.58,0,0,0,0,1.65,8.53,8.53,0,0,0,0,1.75c.13.15.26.3.4.44q8.25,8.27,16.51,16.51c.54.54.54.54,1.07-.06l.69-.7a6.36,6.36,0,0,0,.94-.93l.71-.71.92-.92.69-.7a5.57,5.57,0,0,0,.94-.94l.71-.7L75,44.5l.69-.69,1-.84a2.43,2.43,0,0,1,1.47-.24,3.28,3.28,0,0,1,.79.45L85.77,50q4.82,4.8,9.62,9.63a5.63,5.63,0,0,1,1.69,2.06,2.57,2.57,0,0,1-.38,1.62l-.5.45a2.31,2.31,0,0,1-1.63.22,3.45,3.45,0,0,1-1-.67,1.8,1.8,0,0,0-.5-.53l-1-1a2.74,2.74,0,0,0-.7-.7,7.3,7.3,0,0,0-1-1,1.69,1.69,0,0,0-.5-.53l-1-1a2.74,2.74,0,0,0-.7-.7,7.86,7.86,0,0,0-1-1,1.81,1.81,0,0,0-.5-.53l-1-1a2.63,2.63,0,0,0-.7-.71,8.43,8.43,0,0,0-1-1,1.81,1.81,0,0,0-.5-.53l-1-1a2.63,2.63,0,0,0-.7-.71,8.43,8.43,0,0,0-1-1,1.84,1.84,0,0,0-.5-.54l-1-1a2.53,2.53,0,0,0-.71-.71c-.6-.7-.6-.7-1.25,0-2,2-4,4-6,5.95-.3.29-.33.44,0,.75L96.3,80a2.84,2.84,0,0,1,.79,1.33v3.26c0,.84,0,.84-.88.89H1.63L0,85.43V81a6.37,6.37,0,0,1,1-1.29,2.61,2.61,0,0,0,.62-.62,7.42,7.42,0,0,0,1-1,2.44,2.44,0,0,0,.62-.62,7.42,7.42,0,0,0,1-1,2.44,2.44,0,0,0,.62-.62,8.85,8.85,0,0,0,1-1,2.76,2.76,0,0,0,.61-.62,8.85,8.85,0,0,0,1-1,3,3,0,0,0,.62-.62,9.63,9.63,0,0,0,1-1,3,3,0,0,0,.62-.62,8.85,8.85,0,0,0,1-1,2.76,2.76,0,0,0,.62-.61,8.11,8.11,0,0,0,1-1,2.44,2.44,0,0,0,.62-.62,7.42,7.42,0,0,0,1-1,2.44,2.44,0,0,0,.62-.62,7.42,7.42,0,0,0,1-1,2.61,2.61,0,0,0,.62-.62,7.42,7.42,0,0,0,1-1,2.61,2.61,0,0,0,.62-.62,7.42,7.42,0,0,0,1-1,2.61,2.61,0,0,0,.62-.62,7.42,7.42,0,0,0,1-1,2.61,2.61,0,0,0,.62-.62,6.89,6.89,0,0,0,1-1,2.61,2.61,0,0,0,.62-.62,6.89,6.89,0,0,0,1-1,2.61,2.61,0,0,0,.62-.62,6.89,6.89,0,0,0,1-1c1.11-1.06,1.08-.67.07-1.65l-1-1a4.61,4.61,0,0,0-.77-.76L23,51a3.13,3.13,0,0,0-.66-.65l-1-1a4.26,4.26,0,0,0-.77-.76l-.86-.87c-.15-.26-.32-.31-.54-.07s-.67.7-1,1l-.21.21a15.86,15.86,0,0,0-1.42,1.42l-.31.34a9.46,9.46,0,0,0-1.32,1.29l-.21.21a15.86,15.86,0,0,0-1.42,1.42l-.21.21a17.3,17.3,0,0,0-1.42,1.42.42.42,0,0,0-.23.29A8.08,8.08,0,0,0,10,56.83l-.21.22a13.6,13.6,0,0,0-1.42,1.42l-.21.21A13.6,13.6,0,0,0,6.73,60.1l-.31.33a9.54,9.54,0,0,0-1.32,1.3l-.21.21a13.6,13.6,0,0,0-1.42,1.42l-.21.21a2.24,2.24,0,0,1-1.61.51A2.23,2.23,0,0,1,0,62.71Zm69.25-4.25-.76-.76a5.51,5.51,0,0,0-.87-.87,4.21,4.21,0,0,0-.76-.76L66,55.2a3.42,3.42,0,0,0-.76-.76,4,4,0,0,0-.77-.76l-.86-.91-.87-.84a4.49,4.49,0,0,0-.76-.75,5.51,5.51,0,0,0-.87-.87,4.21,4.21,0,0,0-.76-.76l-.87-.88a4.61,4.61,0,0,0-.77-.76,6.42,6.42,0,0,0-.86-.87l-.76-.75-.87-.88a4.61,4.61,0,0,0-.77-.76,5,5,0,0,0-.86-.86,4.61,4.61,0,0,0-.76-.77L53,42.15a4.61,4.61,0,0,0-.77-.76,5,5,0,0,0-.86-.86,4.61,4.61,0,0,0-.76-.77l-.88-.87a4.21,4.21,0,0,0-.76-.76c-.24-.43-.48-.47-.81-.06a9.6,9.6,0,0,1-.76.81l-.09.09-1.54,1.54-.09.09-1.54,1.54-.09.09-1.54,1.54-.09.09L40.83,45.4l-.09.09L39.2,47l-.09.09-1.54,1.54-.09.09-1.54,1.54-.09.09a18.54,18.54,0,0,0-1.51,1.56l-.12.07-1.54,1.55-.09.08a18.54,18.54,0,0,0-1.51,1.56l-.12.07-1.54,1.55-.09.08-1.54,1.55a2,2,0,0,0-.53.57l2.08,1,.17.07a8.8,8.8,0,0,0,1.47.74l1.61.81a.23.23,0,0,0,.33,0l1.32-1,.56-.4,1.08-.79,1.1-.84a1.77,1.77,0,0,0,.54-.44c.95-.69,1.89-1.39,2.84-2.07.16-.12.29-.29.51-.26,1,.8,2.06,1.61,3.14,2.34a1.27,1.27,0,0,0,.45.38l1.08.78a4.7,4.7,0,0,0,1.05.76,2.27,2.27,0,0,0,.69.54c.29.23.6.45.87.7s.53.31.77-.05a12.1,12.1,0,0,0,1.58-1.19.16.16,0,0,0,.17-.11l3.16-2.36.86-.65.75-.58c.52-.45,1-.7,1.61-.07a2.5,2.5,0,0,0,.66.5,5.16,5.16,0,0,0,1,.75L62,60l.12.07a11.8,11.8,0,0,0,1.51,1.12c.37.47.8.66,1.34.25a3.35,3.35,0,0,1,.45-.27l3.11-1.55c.23-.11.46-.2.69-.32C69.87,59,69.87,59,69.25,58.46Z"/></g></g></svg>