<svg xmlns="http://www.w3.org/2000/svg" viewBox="0 0 114.91 66.44"><defs><style>.cls-1{fill:#333;}</style></defs><g id="Capa_2" data-name="Capa 2"><g id="Capa_1-2" data-name="Capa 1"><path class="cls-1" d="M50.54,17.86c-2.44-.66-4.15.55-5.88,2.25-3.63,3.59-7.39,4.18-10.6,2.05-1.65-1.09-2.14-2.3-1.15-4.2A17.46,17.46,0,0,1,43.37,9.33a39.22,39.22,0,0,1,29.25,1.08c4.71,2.07,9.51,4,14.72,1.18,1.23-.66,2.53.1,3.46,1.19a29.87,29.87,0,0,1,7,17.26c.24,3-2,4.42-4.3,5.59-1.53.79-2.17,1.18-.87,3,3.53,5,2.15,6.68-2.7,10.47-3.42,2.67-6.49,5.71-10.25,8.14-2.33,1.5-3.58,4.55-7.14,4.29-1.31-.09-1.32,1.51-1.87,2.35-2.39,3.61-10.31,3.37-12.34-.41-.4-.76,0-1.38.33-2,.44-1,1.15-.57,1.8-.3,1.21.5,2.4,1.05,3.62,1.51s2.55.31,3.14-.86a2.47,2.47,0,0,0-1.08-3.11c-1.17-.81-2.47-1.43-3.62-2.27a1.76,1.76,0,0,1-.73-2.2c.46-.91,1.55-.76,2.23-.47,2.39,1,4.71,2.26,7.07,3.39,1.66.81,3.45,1.63,4.67-.52S75.65,53,73.86,52c-2-1.21-4.14-2.35-6.19-3.56-1.06-.63-2.33-1.66-1.74-2.77.75-1.42,2.27-.59,3.39,0,3.18,1.64,6.29,3.39,9.49,5,1.69.84,3.64,2.7,5.2,0s-1-3.73-2.72-4.78c-2.75-1.67-5.59-3.17-8.39-4.74a13.51,13.51,0,0,1-2.14-1.29c-.82-.69-1.72-1.65-.92-2.72.63-.85,1.74-.45,2.62,0,4,2.15,7.91,4.39,11.94,6.45,2,1,4.45,3.37,6.24.53,1.88-3-1.57-4-3.33-5.22-8.61-6-17.34-11.76-26-17.7A17.72,17.72,0,0,0,50.54,17.86Z"/><path class="cls-1" d="M97,36c4.43.66,4.61-1.94,4.31-4.87-.94-9.1-3.58-17.45-10.68-23.77-1.31-1.17-1-1.83.36-2.59,1.24-.68,2.38-1.56,3.59-2.32C100.05-1,100.74-1,105,3.71c6.56,7.18,9.16,15.93,9.86,25.4a3.82,3.82,0,0,1-2.37,4c-3.3,1.64-6.54,3.39-9.83,5C100.36,39.3,98.44,39,97,36Z"/><path class="cls-1" d="M17.55,37.52c-1.94,3.23-3.82,3.19-5.87,2.26-1.19-.54-2.34-1.17-3.51-1.76C-.83,33.45-.94,33.31,1,23.53,2.61,15.69,5.74,8.62,11.31,2.7c2-2.12,3.88-2.41,6.25-.82s5.74,2.44,6.61,4.51-2.6,4-4,6.06a36,36,0,0,0-6.69,21.79C13.53,36.47,12.85,39.33,17.55,37.52Z"/><path class="cls-1" d="M16.19,31.46a32.33,32.33,0,0,1,7.41-19,7.26,7.26,0,0,1,9.6-1.09c.58.44.77.85.51,1.48a1.82,1.82,0,0,1-1.87,1.37c-2.62-.33-5.1-.82-6.91,2C22,20.87,19.7,25.63,19.5,31.16c-.06,1.63,1.24,2.41,2.46,3.23,2.36,1.6,4.68,3.27,6.93,5,1,.75,1.76,1.93.82,3.09s-1.92-.15-2.71-.62c-2.86-1.69-5.63-3.55-8.47-5.28C16.68,35.47,15.94,33.88,16.19,31.46Z"/><path class="cls-1" d="M51,46.37a3.32,3.32,0,0,1,2.62,4.46c-1.53,3.06-3.25,6-4.87,9a2.61,2.61,0,0,1-3.35,1.22,2.7,2.7,0,0,1-2.14-3.23,28.37,28.37,0,0,1,4.91-10.49A3.55,3.55,0,0,1,51,46.37Z"/><path class="cls-1" d="M45.76,46.89a31.87,31.87,0,0,1-4.14,8.5,2.74,2.74,0,0,1-3.83.68,2.61,2.61,0,0,1-1.09-3.42c1.1-2.62,2.24-5.23,3.49-7.78a2.77,2.77,0,0,1,3.61-1.42C45.38,44,46,45.16,45.76,46.89Z"/><path class="cls-1" d="M58.71,57.29c-1.46,2.37-2.31,5.39-5,6.89a2.52,2.52,0,0,1-3.53-2.83,15.17,15.17,0,0,1,3.63-6c1-1,2.4-.77,3.65-.24C58.27,55.48,58.55,56.25,58.71,57.29Z"/><path class="cls-1" d="M37.23,45.18c0,2.34-2.43,5.79-4.11,5.49a3.65,3.65,0,0,1-3.21-3.62c-.08-3.16,2.12-5.78,4.61-5.71C36.2,41.38,37.22,42.84,37.23,45.18Z"/></g></g></svg>