<svg xmlns="http://www.w3.org/2000/svg" viewBox="0 0 107.15 58.07"><defs><style>.cls-1{fill:#333;}</style></defs><g id="Capa_2" data-name="Capa 2"><g id="Capa_1-2" data-name="Capa 1"><path class="cls-1" d="M54.38,58.07A59.81,59.81,0,0,1,35,54.8a74.45,74.45,0,0,1-23.89-14,76.41,76.41,0,0,1-10.76-11,1,1,0,0,1,0-1.43,80,80,0,0,1,17-15.94A67.92,67.92,0,0,1,39.7,1.78,55.07,55.07,0,0,1,52,0a58.7,58.7,0,0,1,28.2,6.61A79.36,79.36,0,0,1,97,18a75.84,75.84,0,0,1,9.88,10.31.92.92,0,0,1,0,1.37A80.63,80.63,0,0,1,78.59,52.18a58.73,58.73,0,0,1-18.23,5.41C58.07,57.88,55.75,58,54.38,58.07ZM36.24,47.46l.1-.17a4,4,0,0,0-.37-.45A25,25,0,0,1,29.24,35a26,26,0,0,1-.19-11.11c.08-.43.28-.55.7-.47.91.17,1.82.3,2.73.46s1,.18.86,1.21A31.38,31.38,0,0,0,33,30.34,19.88,19.88,0,0,0,40.89,45.2a20.52,20.52,0,0,0,28.35-2.85,20.08,20.08,0,0,0,5-12.9,19.77,19.77,0,0,0-5.83-14.71A20,20,0,0,0,50.83,8.6,20.2,20.2,0,0,0,40.2,13.36c-.5.41-.77.34-1.15-.1-.67-.78-1.39-1.53-2-2.32a.86.86,0,0,0-1.16-.31c-1.84.84-3.74,1.56-5.55,2.47A75,75,0,0,0,9.8,28.41c-.42.44-.46.74,0,1.16,2.57,2.35,5,4.84,7.7,7A65.89,65.89,0,0,0,35.56,47.27C35.78,47.35,36,47.4,36.24,47.46ZM70.86,10.54l-.18.19A24.48,24.48,0,0,1,78.59,29a25.17,25.17,0,0,1-7.83,18.36,2.18,2.18,0,0,0,.89-.15,65.17,65.17,0,0,0,11-5.57,79.44,79.44,0,0,0,14.63-12c.59-.62.61-.72,0-1.31-2.21-2.09-4.35-4.24-6.66-6.2A66.94,66.94,0,0,0,71.91,10.89C71.57,10.75,71.21,10.65,70.86,10.54Z"/><path class="cls-1" d="M43.47,20a12.31,12.31,0,0,1,6.29-3.31,13.19,13.19,0,1,1-9.56,17.7,13.32,13.32,0,0,1-.52-8c.12-.54.44-.46.81-.39l8.38,1.4a7.91,7.91,0,0,0,.84.06l.15-.21Z"/></g></g></svg>